<svg width="24" height="24" viewBox="0 0 24 24" fill="none" xmlns="http://www.w3.org/2000/svg">
<path fill-rule="evenodd" clip-rule="evenodd" d="M12.7851 23.5H1.76949C1.06817 23.5 0.5 22.9315 0.5 22.2305V1.76949C0.5 1.06817 1.06817 0.5 1.76949 0.5H22.2307C22.9316 0.5 23.5 1.06817 23.5 1.76949V22.2305C23.5 22.9316 22.9316 23.5 22.2307 23.5H16.3696V14.5931H19.3593L19.8069 11.1219H16.3696V8.90578C16.3696 7.90079 16.6487 7.216 18.0898 7.216L19.9278 7.21528V4.11064C19.6099 4.06841 18.5189 3.9739 17.2494 3.9739C14.5992 3.9739 12.7849 5.59163 12.7849 8.56222V11.122H9.78769V14.5933H12.7851V23.5Z" fill="white"/>
</svg>
