<svg width="34" height="32" viewBox="0 0 34 32" fill="none" xmlns="http://www.w3.org/2000/svg">
<path d="M16.3129 14.6108H14.9833C14.9322 14.3267 14.837 14.0767 14.6978 13.8608C14.5586 13.6449 14.3881 13.4616 14.1864 13.3111C13.9847 13.1605 13.7589 13.0469 13.5089 12.9702C13.2617 12.8935 12.9989 12.8551 12.7205 12.8551C12.2177 12.8551 11.7674 12.9815 11.3697 13.2344C10.9748 13.4872 10.6623 13.858 10.4322 14.3466C10.2049 14.8352 10.0913 15.4318 10.0913 16.1364C10.0913 16.8466 10.2049 17.446 10.4322 17.9347C10.6623 18.4233 10.9762 18.7926 11.3739 19.0426C11.7717 19.2926 12.2191 19.4176 12.7163 19.4176C12.9918 19.4176 13.2532 19.3807 13.5004 19.3068C13.7504 19.2301 13.9762 19.1179 14.1779 18.9702C14.3796 18.8224 14.5501 18.642 14.6893 18.429C14.8313 18.2131 14.9293 17.9659 14.9833 17.6875L16.3129 17.6918C16.2418 18.1207 16.104 18.5156 15.8995 18.8764C15.6978 19.2344 15.4379 19.544 15.1197 19.8054C14.8043 20.0639 14.4435 20.2642 14.0373 20.4062C13.631 20.5483 13.1879 20.6193 12.7077 20.6193C11.9521 20.6193 11.2788 20.4403 10.6879 20.0824C10.0969 19.7216 9.63104 19.206 9.29013 18.5355C8.95206 17.8651 8.78303 17.0653 8.78303 16.1364C8.78303 15.2045 8.95348 14.4048 9.29439 13.7372C9.6353 13.0668 10.1012 12.5526 10.6921 12.1946C11.283 11.8338 11.9549 11.6534 12.7077 11.6534C13.1708 11.6534 13.6026 11.7202 14.0032 11.8537C14.4066 11.9844 14.7688 12.1776 15.0898 12.4332C15.4109 12.6861 15.6765 12.9957 15.8867 13.3622C16.0969 13.7259 16.239 14.142 16.3129 14.6108ZM24.9325 11.7727V20.5H23.7223L19.2862 14.0994H19.2053V20.5H17.8885V11.7727H19.1072L23.5476 18.1818H23.6286V11.7727H24.9325Z" fill="white"/>
</svg>
