<svg width="38" height="32" viewBox="0 0 38 32" fill="none" xmlns="http://www.w3.org/2000/svg">
<path d="M8.64435 20.5V11.7727H14.1159V12.9062H9.96112V15.5653H13.8304V16.6946H9.96112V19.3665H14.1671V20.5H8.64435ZM20.6348 14.0653C20.5893 13.6619 20.4018 13.3494 20.0723 13.1278C19.7427 12.9034 19.3279 12.7912 18.8279 12.7912C18.47 12.7912 18.1603 12.848 17.899 12.9616C17.6376 13.0724 17.4345 13.2259 17.2896 13.4219C17.1475 13.6151 17.0765 13.8352 17.0765 14.0824C17.0765 14.2898 17.1248 14.4687 17.2214 14.6193C17.3208 14.7699 17.4501 14.8963 17.6092 14.9986C17.7711 15.098 17.9444 15.1818 18.1291 15.25C18.3137 15.3153 18.4913 15.3693 18.6618 15.4119L19.514 15.6335C19.7924 15.7017 20.0779 15.794 20.3706 15.9105C20.6632 16.027 20.9345 16.1804 21.1845 16.3707C21.4345 16.5611 21.6362 16.7969 21.7896 17.0781C21.9458 17.3594 22.024 17.696 22.024 18.0881C22.024 18.5824 21.8961 19.0213 21.6404 19.4048C21.3876 19.7884 21.0197 20.0909 20.5368 20.3125C20.0566 20.5341 19.4757 20.6449 18.7939 20.6449C18.1404 20.6449 17.5751 20.5412 17.0978 20.3338C16.6206 20.1264 16.247 19.8324 15.9771 19.4517C15.7072 19.0682 15.5581 18.6136 15.5297 18.0881H16.8507C16.8762 18.4034 16.9785 18.6662 17.1575 18.8764C17.3393 19.0838 17.5708 19.2386 17.8521 19.3409C18.1362 19.4403 18.4473 19.4901 18.7853 19.4901C19.1575 19.4901 19.4885 19.4318 19.7782 19.3153C20.0708 19.196 20.301 19.0312 20.4686 18.821C20.6362 18.608 20.72 18.3594 20.72 18.0753C20.72 17.8168 20.6461 17.6051 20.4984 17.4403C20.3535 17.2756 20.1561 17.1392 19.9061 17.0312C19.6589 16.9233 19.3791 16.8281 19.0666 16.7457L18.0353 16.4645C17.3365 16.2741 16.7825 15.9943 16.3734 15.625C15.9672 15.2557 15.764 14.767 15.764 14.1591C15.764 13.6562 15.9004 13.2173 16.1731 12.8423C16.4458 12.4673 16.8152 12.1761 17.2811 11.9688C17.747 11.7585 18.2725 11.6534 18.8578 11.6534C19.4487 11.6534 19.97 11.7571 20.4217 11.9645C20.8762 12.1719 21.2342 12.4574 21.4956 12.821C21.7569 13.1818 21.8933 13.5966 21.9047 14.0653H20.6348ZM23.5975 20.5V11.7727H26.7083C27.3873 11.7727 27.9498 11.8963 28.3958 12.1435C28.8418 12.3906 29.1756 12.7287 29.3972 13.1577C29.6188 13.5838 29.7296 14.0639 29.7296 14.598C29.7296 15.1349 29.6174 15.6179 29.3929 16.0469C29.1713 16.473 28.8361 16.8111 28.3873 17.0611C27.9412 17.3082 27.3801 17.4318 26.704 17.4318H24.5648V16.3153H26.5847C27.0137 16.3153 27.3617 16.2415 27.6287 16.0938C27.8958 15.9432 28.0918 15.7386 28.2168 15.4801C28.3418 15.2216 28.4043 14.9276 28.4043 14.598C28.4043 14.2685 28.3418 13.9759 28.2168 13.7202C28.0918 13.4645 27.8944 13.2642 27.6245 13.1193C27.3574 12.9744 27.0051 12.902 26.5676 12.902H24.9142V20.5H23.5975Z" fill="white"/>
</svg>
