<svg width="23" height="24" viewBox="0 0 23 24" fill="none" xmlns="http://www.w3.org/2000/svg">
<path fill-rule="evenodd" clip-rule="evenodd" d="M19.8121 0.5C21.2956 0.5 22.5 1.75916 22.5 3.31004V20.69C22.5 22.2408 21.2956 23.5 19.8121 23.5H3.18787C1.70441 23.5 0.5 22.2408 0.5 20.69V3.31004C0.5 1.75916 1.70437 0.5 3.18787 0.5L19.8121 0.5ZM11.5 4.13867C9.45782 4.13867 9.20173 4.1477 8.39972 4.18597C7.59934 4.22416 7.05273 4.35704 6.57441 4.55141C6.07992 4.75231 5.66059 5.02112 5.24255 5.45812C4.8245 5.89516 4.56738 6.3336 4.37522 6.85052C4.18934 7.35059 4.06224 7.92204 4.02567 8.7588C3.98911 9.59726 3.98047 9.865 3.98047 12C3.98047 14.135 3.98911 14.4027 4.02567 15.2412C4.06224 16.078 4.18934 16.6494 4.37522 17.1495C4.56738 17.6664 4.8245 18.1048 5.24255 18.5419C5.66059 18.9789 6.07992 19.2477 6.57441 19.4486C7.05273 19.643 7.59934 19.7758 8.39972 19.814C9.20173 19.8523 9.45782 19.8613 11.5 19.8613C13.5422 19.8613 13.7983 19.8523 14.6003 19.814C15.4007 19.7758 15.9473 19.643 16.4256 19.4486C16.92 19.2477 17.3394 18.9789 17.7575 18.5419C18.1755 18.1048 18.4326 17.6664 18.6248 17.1495C18.8107 16.6494 18.9378 16.078 18.9743 15.2412C19.0109 14.4027 19.0195 14.135 19.0195 12C19.0195 9.865 19.0109 9.59726 18.9743 8.7588C18.9378 7.92204 18.8107 7.35059 18.6248 6.85052C18.4326 6.3336 18.1755 5.89516 17.7575 5.45812C17.3394 5.02112 16.92 4.75231 16.4256 4.55141C15.9473 4.35704 15.4007 4.22416 14.6003 4.18597C13.7983 4.1477 13.5422 4.13867 11.5 4.13867ZM11.5 5.55515C13.5078 5.55515 13.7456 5.56314 14.5385 5.60097C15.2717 5.63596 15.6698 5.76404 15.9348 5.87162C16.2858 6.01425 16.5363 6.18464 16.7994 6.4597C17.0626 6.7348 17.2255 6.99669 17.3619 7.36361C17.4649 7.64065 17.5874 8.05689 17.6208 8.82335C17.657 9.65229 17.6647 9.90094 17.6647 12C17.6647 14.0991 17.657 14.3477 17.6208 15.1767C17.5874 15.9431 17.4649 16.3594 17.3619 16.6364C17.2255 17.0034 17.0626 17.2652 16.7994 17.5403C16.5363 17.8154 16.2858 17.9858 15.9348 18.1284C15.6698 18.236 15.2717 18.3641 14.5385 18.399C13.7458 18.4369 13.5079 18.4449 11.5 18.4449C9.49207 18.4449 9.25428 18.4369 8.46146 18.399C7.72833 18.3641 7.33018 18.236 7.0652 18.1284C6.71418 17.9858 6.46372 17.8154 6.20058 17.5403C5.93744 17.2652 5.77446 17.0034 5.63807 16.6364C5.53512 16.3594 5.41262 15.9431 5.37914 15.1767C5.34297 14.3477 5.33532 14.0991 5.33532 12C5.33532 9.90094 5.34297 9.65229 5.37914 8.82335C5.41262 8.05689 5.53512 7.64065 5.63807 7.36361C5.77446 6.99669 5.93744 6.7348 6.20058 6.4597C6.46372 6.18464 6.71418 6.01425 7.0652 5.87162C7.33018 5.76404 7.72833 5.63596 8.46146 5.60097C9.25437 5.56314 9.4922 5.55515 11.5 5.55515ZM11.5 7.9631C9.36742 7.9631 7.63861 9.77048 7.63861 12C7.63861 14.2295 9.36742 16.0369 11.5 16.0369C13.6326 16.0369 15.3614 14.2295 15.3614 12C15.3614 9.77048 13.6326 7.9631 11.5 7.9631ZM11.5 14.6204C10.1157 14.6204 8.9935 13.4472 8.9935 12C8.9935 10.5528 10.1157 9.37957 11.5 9.37957C12.8843 9.37957 14.0065 10.5528 14.0065 12C14.0065 13.4472 12.8843 14.6204 11.5 14.6204ZM16.4163 7.80362C16.4163 8.32463 16.0123 8.74694 15.5139 8.74694C15.0156 8.74694 14.6116 8.32463 14.6116 7.80362C14.6116 7.28262 15.0156 6.86026 15.5139 6.86026C16.0123 6.86026 16.4163 7.28262 16.4163 7.80362Z" fill="white"/>
</svg>
